<?xml version="1.0" encoding="UTF-8" standalone="no"?>
<svg
   width="72.957275mm"
   height="8.2634697mm"
   viewBox="0 0 72.957275 8.2634699"
   version="1.1"
   id="svg1"
   xmlns="http://www.w3.org/2000/svg"
   xmlns:svg="http://www.w3.org/2000/svg">
  <defs
     id="defs1" />
  <g
     id="layer1"
     transform="translate(-96.110937,-137.0754)">
    <g
       id="text1-3"
       style="font-size:8.46667px;line-height:1;font-family:Cantarell;-inkscape-font-specification:Cantarell;stroke-width:0.264583"
       aria-label="portfolio.ejmastnak">
      <path
         style="fill:#60a5fa"
         d="m 97.905871,143.5016 c 1.134534,0 1.896534,-0.88054 1.896534,-2.20134 0,-1.22766 -0.702734,-2.04893 -1.752601,-2.04893 -0.5842,0 -1.134534,0.254 -1.481667,0.69427 l 0.1524,0.42333 c 0.296333,-0.3302 0.719667,-0.52493 1.151467,-0.52493 0.762,0 1.253067,0.6096 1.253067,1.54093 0,0.9144 -0.448733,1.524 -1.185334,1.524 -0.6096,0 -1.1176,-0.39793 -1.261533,-0.99907 l -0.2794,0.46567 c 0.186266,0.7112 0.770466,1.12607 1.507067,1.12607 z m -1.794934,1.7526 h 0.677333 v -5.44407 l -0.2032,-0.47413 h -0.474133 z m 6.476993,-1.7526 c 1.20227,0 2.01507,-0.87207 2.01507,-2.17594 0,-1.26153 -0.75353,-2.07433 -1.91347,-2.07433 -1.20227,0 -2.0066,0.8636 -2.0066,2.16747 0,1.26153 0.74507,2.0828 1.905,2.0828 z m 0.0931,-0.59267 c -0.78741,0 -1.32081,-0.635 -1.32081,-1.5748 0,-0.90593 0.4826,-1.49013 1.23614,-1.49013 0.7874,0 1.32927,0.64346 1.32927,1.5748 0,0.89746 -0.49107,1.49013 -1.2446,1.49013 z m 3.06493,0.508 h 0.67733 v -3.13267 L 106.3048,139.336 h -0.5588 z m 0.52493,-2.65007 c 0.23707,-0.51646 0.72813,-0.82973 1.28693,-0.82973 0.16087,0 0.31327,0.0254 0.44874,0.0762 l 0.16933,-0.62653 c -0.1778,-0.0593 -0.3556,-0.0931 -0.54187,-0.0931 -0.55033,0 -1.05833,0.29634 -1.36313,0.7874 z m 4.06401,2.6924 c 0.2794,0 0.5588,-0.0677 0.75353,-0.1524 l -0.1524,-0.49106 c -0.127,0.0593 -0.31327,0.0931 -0.4572,0.0931 -0.42333,0 -0.70273,-0.27093 -0.70273,-0.67733 v -4.0894 h -0.67734 v 4.18253 c 0,0.67733 0.49107,1.13453 1.23614,1.13453 z m -1.78647,-3.556 h 2.34527 V 139.336 h -2.34527 z m 3.5814,3.51367 h 0.67734 V 138.447 c 0,-0.52494 0.24553,-0.79587 0.7112,-0.79587 0.22013,0 0.508,0.0423 0.71966,0.14393 l 0.14394,-0.508 c -0.26247,-0.127 -0.52494,-0.21166 -0.8128,-0.21166 -0.8636,0 -1.43934,0.5842 -1.43934,1.45626 z m -0.6096,-3.51367 h 2.55694 V 139.336 h -2.55694 z m 4.99534,3.59834 c 1.20227,0 2.01507,-0.87207 2.01507,-2.17594 0,-1.26153 -0.75354,-2.07433 -1.91347,-2.07433 -1.20227,0 -2.0066,0.8636 -2.0066,2.16747 0,1.26153 0.74507,2.0828 1.905,2.0828 z m 0.0931,-0.59267 c -0.7874,0 -1.3208,-0.635 -1.3208,-1.5748 0,-0.90593 0.4826,-1.49013 1.23614,-1.49013 0.7874,0 1.32926,0.64346 1.32926,1.5748 0,0.89746 -0.49106,1.49013 -1.2446,1.49013 z m 3.9878,0.5588 c 0.22013,0 0.4826,-0.0508 0.64347,-0.13547 l -0.1524,-0.47413 c -0.1016,0.0423 -0.19474,0.0677 -0.29634,0.0677 -0.28786,0 -0.44027,-0.19473 -0.44027,-0.508 v -5.2578 h -0.67733 v 5.34247 c 0,0.5842 0.36407,0.9652 0.92287,0.9652 z m 1.43086,-0.0508 h 0.67734 V 139.336 h -0.67734 z m 0.34714,-5.03767 c 0.3048,0 0.4826,-0.1778 0.4826,-0.4826 0,-0.3048 -0.1778,-0.4826 -0.4826,-0.4826 -0.3048,0 -0.4826,0.1778 -0.4826,0.4826 0,0.3048 0.1778,0.4826 0.4826,0.4826 z m 3.3782,5.12234 c 1.20227,0 2.01507,-0.87207 2.01507,-2.17594 0,-1.26153 -0.75353,-2.07433 -1.91347,-2.07433 -1.20226,0 -2.0066,0.8636 -2.0066,2.16747 0,1.26153 0.74507,2.0828 1.905,2.0828 z m 0.0931,-0.59267 c -0.7874,0 -1.32081,-0.635 -1.32081,-1.5748 0,-0.90593 0.48261,-1.49013 1.23614,-1.49013 0.7874,0 1.32927,0.64346 1.32927,1.5748 0,0.89746 -0.49107,1.49013 -1.2446,1.49013 z m 3.44593,0.59267 c 0.32173,0 0.54186,-0.2286 0.54186,-0.54187 0,-0.31327 -0.22013,-0.54187 -0.54186,-0.54187 -0.32174,0 -0.54187,0.2286 -0.54187,0.54187 0,0.31327 0.22013,0.54187 0.54187,0.54187 z"
         id="path1" />
      <path
         style="fill:#3b82f6"
         d="m 132.91554,143.5016 c 0.46567,0 0.97367,-0.11007 1.33774,-0.3048 l -0.1524,-0.49107 c -0.31327,0.1524 -0.7112,0.24553 -1.0668,0.24553 -0.95674,0 -1.524,-0.635 -1.524,-1.69333 0,-0.92287 0.41486,-1.43087 1.15993,-1.43087 0.69427,0 1.10067,0.44874 1.10067,1.22767 h -2.37914 v 0.508 h 2.98027 c 0.0169,-0.127 0.0339,-0.42333 0.0339,-0.5842 0,-1.02447 -0.67734,-1.7272 -1.68487,-1.7272 -1.13453,0 -1.905,0.889 -1.905,2.14207 0,1.30386 0.80433,2.1082 2.09973,2.1082 z m 2.09127,1.83727 c 0.77047,-0.33867 1.2192,-0.98214 1.2192,-1.72721 V 139.336 h -0.67733 v 4.37726 c 0,0.47414 -0.3048,0.95674 -0.762,1.21921 z m 0.88053,-6.95961 c 0.3048,0 0.4826,-0.1778 0.4826,-0.4826 0,-0.3048 -0.1778,-0.4826 -0.4826,-0.4826 -0.3048,0 -0.4826,0.1778 -0.4826,0.4826 0,0.3048 0.1778,0.4826 0.4826,0.4826 z m 7.23054,5.03767 h 0.67734 v -2.67547 c 0,-0.90593 -0.59267,-1.49013 -1.4986,-1.49013 -0.5842,0 -1.15994,0.254 -1.58327,0.70273 l 0.16087,0.4318 c 0.3302,-0.34713 0.77046,-0.54186 1.23613,-0.54186 0.65193,0 1.00753,0.37253 1.00753,1.03293 z m -5.4864,0 h 0.67734 v -3.6068 l -0.2032,-0.47413 h -0.47414 z m 2.7432,0 h 0.67734 v -2.67547 c 0,-0.90593 -0.59267,-1.49013 -1.49014,-1.49013 -0.59266,0 -1.1684,0.254 -1.59173,0.70273 l 0.16087,0.4318 c 0.3302,-0.34713 0.77046,-0.54186 1.23613,-0.54186 0.65193,0 1.00753,0.37253 1.00753,1.03293 z m 7.28134,0 h 0.47413 v -2.65007 c 0,-0.97366 -0.57573,-1.51553 -1.64254,-1.51553 -0.5334,0 -1.10913,0.14393 -1.5494,0.38947 l 0.16934,0.49953 c 0.42333,-0.18627 0.84666,-0.2794 1.2446,-0.2794 0.72813,0 1.10067,0.3048 1.10067,0.90593 v 2.17594 z m -1.44781,0.0847 c 0.97367,0 1.71027,-0.6096 1.82881,-1.51554 l -0.24554,-0.11853 c -0.127,0.62653 -0.6858,1.0414 -1.38853,1.0414 -0.54187,0 -0.89747,-0.27093 -0.89747,-0.67733 0,-0.51647 0.60113,-0.72814 2.04894,-0.72814 v -0.46566 c -1.90501,0 -2.72627,0.381 -2.72627,1.27 0,0.72813 0.54186,1.1938 1.38006,1.1938 z m 4.4958,0 c 1.00753,0 1.6256,-0.47414 1.6256,-1.22767 0,-1.4986 -2.4384,-0.9398 -2.4384,-1.86267 0,-0.3556 0.381,-0.5842 0.9906,-0.5842 0.34713,0 0.75353,0.0762 1.10067,0.19474 l 0.16086,-0.55034 c -0.34713,-0.14393 -0.762,-0.22013 -1.1938,-0.22013 -1.05833,0 -1.73567,0.46567 -1.73567,1.23613 0,1.46474 2.42994,0.85514 2.42994,1.8542 0,0.37254 -0.3302,0.5842 -0.889,0.5842 -0.4318,0 -1.00754,-0.11853 -1.43934,-0.3048 l -0.16086,0.55034 c 0.46566,0.21166 1.03293,0.3302 1.5494,0.3302 z m 4.08941,-0.0423 c 0.2794,0 0.5588,-0.0677 0.75353,-0.1524 l -0.1524,-0.49106 c -0.127,0.0593 -0.31327,0.0931 -0.4572,0.0931 -0.42333,0 -0.70273,-0.27093 -0.70273,-0.67733 v -4.0894 h -0.67734 v 4.18253 c 0,0.67733 0.49107,1.13453 1.23614,1.13453 z m -1.78647,-3.556 h 2.34527 V 139.336 h -2.34527 z m 6.23147,3.51367 h 0.67733 v -2.67547 c 0,-0.90593 -0.60113,-1.49013 -1.51553,-1.49013 -0.59267,0 -1.17687,0.254 -1.60867,0.70273 l 0.16087,0.4318 c 0.33867,-0.34713 0.7874,-0.54186 1.26153,-0.54186 0.6604,0 1.02447,0.37253 1.02447,1.03293 z m -2.78553,0 h 0.67733 v -3.6068 l -0.2032,-0.47413 h -0.47413 z m 7.32366,0 h 0.47414 v -2.65007 c 0,-0.97366 -0.57574,-1.51553 -1.64254,-1.51553 -0.5334,0 -1.10913,0.14393 -1.5494,0.38947 l 0.16933,0.49953 c 0.42334,-0.18627 0.84667,-0.2794 1.2446,-0.2794 0.72814,0 1.10067,0.3048 1.10067,0.90593 v 2.17594 z m -1.4478,0.0847 c 0.97367,0 1.71027,-0.6096 1.8288,-1.51554 l -0.24553,-0.11853 c -0.127,0.62653 -0.6858,1.0414 -1.38854,1.0414 -0.54186,0 -0.89746,-0.27093 -0.89746,-0.67733 0,-0.51647 0.60113,-0.72814 2.04893,-0.72814 v -0.46566 c -1.905,0 -2.72627,0.381 -2.72627,1.27 0,0.72813 0.54187,1.1938 1.38007,1.1938 z m 5.84199,-0.0847 h 0.89747 l -2.12514,-2.42147 -0.0508,0.41487 1.98967,-2.07433 h -0.80433 l -1.8288,1.905 z m -2.58233,0 h 0.67733 v -6.25687 h -0.67733 z"
         id="path2" />
    </g>
  </g>
</svg>
